<svg width="40" height="40" viewBox="0 0 40 40" fill="none" xmlns="http://www.w3.org/2000/svg">
<path d="M6.06708 17.3422C8.27496 17.3422 10.2599 17.8 11.6768 18.4456C12.3866 18.769 12.9341 19.1305 13.2961 19.4874C13.6641 19.8503 13.7936 20.1595 13.7936 20.3879C13.7936 20.6163 13.6641 20.9255 13.2961 21.2884C12.9341 21.6453 12.3866 22.0068 11.6768 22.3302C10.2599 22.9758 8.27496 23.4336 6.06708 23.4336C3.85617 23.4336 2.45496 22.9749 1.62054 22.3784C0.799821 21.7917 0.5 21.0552 0.5 20.3879C0.5 19.7206 0.799821 18.984 1.62054 18.3974C2.45496 17.8009 3.85617 17.3422 6.06708 17.3422Z" stroke="white"/>
<path d="M33.9329 17.3422C31.725 17.3422 29.7401 17.8 28.3232 18.4456C27.6134 18.769 27.0659 19.1305 26.7039 19.4874C26.3359 19.8503 26.2064 20.1595 26.2064 20.3879C26.2064 20.6163 26.3359 20.9255 26.7039 21.2884C27.0659 21.6453 27.6134 22.0068 28.3232 22.3302C29.7401 22.9758 31.725 23.4336 33.9329 23.4336C36.1438 23.4336 37.545 22.9749 38.3795 22.3784C39.2002 21.7917 39.5 21.0552 39.5 20.3879C39.5 19.7206 39.2002 18.984 38.3795 18.3974C37.545 17.8009 36.1438 17.3422 33.9329 17.3422Z" stroke="white"/>
<path d="M8.18881 27.8936C9.75002 26.3324 11.4773 25.2526 12.9357 24.7071C13.6663 24.4339 14.309 24.3024 14.8174 24.2988C15.3342 24.2952 15.6445 24.4222 15.8059 24.5837C15.9674 24.7452 16.0945 25.0555 16.0909 25.5723C16.0873 26.0807 15.9558 26.7234 15.6825 27.4539C15.1371 28.9124 14.0573 30.6396 12.4961 32.2009C10.9327 33.7642 9.61759 34.4307 8.60579 34.5989C7.61061 34.7644 6.87779 34.4556 6.40593 33.9837C5.93408 33.5119 5.62527 32.7791 5.79075 31.7839C5.959 30.7721 6.62546 29.4569 8.18881 27.8936Z" stroke="white"/>
<path d="M27.8928 8.18954C26.3316 9.75075 25.2518 11.478 24.7064 12.9365C24.4332 13.667 24.3017 14.3097 24.2981 14.8181C24.2944 15.335 24.4215 15.6452 24.583 15.8067C24.7445 15.9682 25.0547 16.0952 25.5715 16.0916C26.0799 16.088 26.7227 15.9565 27.4532 15.6833C28.9116 15.1378 30.6389 14.058 32.2001 12.4968C33.7635 10.9335 34.4299 9.61833 34.5982 8.60652C34.7637 7.61134 34.4549 6.87852 33.983 6.40667C33.5112 5.93481 32.7783 5.626 31.7831 5.79148C30.7713 5.95973 29.4562 6.62619 27.8928 8.18954Z" stroke="white"/>
<path d="M12.4968 8.1893C14.058 9.75051 15.1378 11.4778 15.6833 12.9362C15.9565 13.6668 16.088 14.3095 16.0916 14.8179C16.0952 15.3347 15.9681 15.645 15.8067 15.8064C15.6452 15.9679 15.3349 16.095 14.8181 16.0914C14.3097 16.0878 13.667 15.9563 12.9364 15.683C11.478 15.1376 9.75073 14.0578 8.18953 12.4966C6.62618 10.9332 5.95971 9.61808 5.79146 8.60628C5.62598 7.6111 5.93478 6.87828 6.40664 6.40642C6.8785 5.93457 7.61132 5.62576 8.6065 5.79124C9.61831 5.95949 10.9335 6.62595 12.4968 8.1893Z" stroke="white"/>
<path d="M32.2008 27.8933C30.6396 26.3321 28.9124 25.2523 27.4539 24.7069C26.7234 24.4337 26.0806 24.3021 25.5722 24.2986C25.0554 24.2949 24.7452 24.422 24.5837 24.5835C24.4222 24.745 24.2951 25.0552 24.2988 25.572C24.3024 26.0804 24.4339 26.7231 24.7071 27.4537C25.2525 28.9121 26.3324 30.6394 27.8936 32.2006C29.4569 33.764 30.7721 34.4304 31.7839 34.5987C32.779 34.7642 33.5119 34.4554 33.9837 33.9835C34.4556 33.5116 34.7644 32.7788 34.5989 31.7836C34.4307 30.7718 33.7642 29.4567 32.2008 27.8933Z" stroke="white"/>
<path d="M17.3422 33.9329C17.3422 31.725 17.8 29.7401 18.4456 28.3232C18.769 27.6134 19.1305 27.0659 19.4874 26.7039C19.8503 26.3359 20.1595 26.2064 20.3879 26.2064C20.6163 26.2064 20.9255 26.3359 21.2884 26.7039C21.6453 27.0659 22.0068 27.6134 22.3302 28.3232C22.9758 29.7401 23.4336 31.725 23.4336 33.9329C23.4336 36.1438 22.9749 37.545 22.3784 38.3795C21.7917 39.2002 21.0552 39.5 20.3879 39.5C19.7206 39.5 18.984 39.2002 18.3974 38.3795C17.8009 37.545 17.3422 36.1438 17.3422 33.9329Z" stroke="white"/>
<path d="M17.3422 6.06708C17.3422 8.27496 17.8 10.2599 18.4456 11.6768C18.769 12.3866 19.1305 12.9341 19.4874 13.2961C19.8503 13.6641 20.1595 13.7936 20.3879 13.7936C20.6163 13.7936 20.9255 13.6641 21.2884 13.2961C21.6453 12.9341 22.0068 12.3866 22.3302 11.6768C22.9758 10.2599 23.4336 8.27496 23.4336 6.06708C23.4336 3.85617 22.9749 2.45496 22.3784 1.62054C21.7917 0.799821 21.0552 0.5 20.3879 0.5C19.7206 0.5 18.984 0.799821 18.3974 1.62054C17.8009 2.45496 17.3422 3.85617 17.3422 6.06708Z" stroke="white"/>
</svg>
